HIERARCHY
ROOT Hips
{
    OFFSET 0.000 93.594 0.000
    CHANNELS 6 Xposition Yposition Zposition Yrotation Xrotation Zrotation
    JOINT RightHip
    {
        OFFSET -9.500 -1.594 0.000
        CHANNELS 3 Yrotation Xrotation Zrotation
        JOINT RightKnee
        {
            OFFSET 0.000 -42.000 0.000
            CHANNELS 3 Yrotation Xrotation Zrotation
            JOINT RightAnkle
            {
                OFFSET 0.000 -42.000 0.000
                CHANNELS 3 Yrotation Xrotation Zrotation
                End Site
                {
                    OFFSET 0.000 -8.000 17.500
                }
            }
        }
    }
    JOINT LeftHip
    {
        OFFSET 9.500 -1.594 0.000
        CHANNELS 3 Yrotation Xrotation Zrotation
        JOINT LeftKnee
        {
            OFFSET 0.000 -42.000 0.000
            CHANNELS 3 Yrotation Xrotation Zrotation
            JOINT LeftAnkle
            {
                OFFSET 0.000 -42.000 0.000
                CHANNELS 3 Yrotation Xrotation Zrotation
                End Site
                {
                    OFFSET 0.000 -8.000 17.500
                }
            }
        }
    }
    JOINT Chest
    {
        OFFSET 0.000 14.348 0.000
        CHANNELS 3 Yrotation Xrotation Zrotation
        JOINT Chest2
        {
            OFFSET 0.000 9.746 0.000
            CHANNELS 3 Yrotation Xrotation Zrotation
            JOINT Chest3
            {
                OFFSET 0.000 10.149 0.000
                CHANNELS 3 Yrotation Xrotation Zrotation
                JOINT Chest4
                {
                    OFFSET 0.000 9.746 0.000
                    CHANNELS 3 Yrotation Xrotation Zrotation
                    JOINT Neck
                    {
                        OFFSET 0.000 10.417 0.000
                        CHANNELS 3 Yrotation Xrotation Zrotation
                        JOINT Head
                        {
                            OFFSET 0.000 9.000 0.000
                            CHANNELS 3 Yrotation Xrotation Zrotation
                            End Site
                            {
                                OFFSET 0.000 16.000 0.000
                            }
                        }
                    }
                    JOINT RightCollar
                    {
                        OFFSET -3.200 6.945 0.000
                        CHANNELS 3 Yrotation Xrotation Zrotation
                        JOINT RightShoulder
                        {
                            OFFSET -12.800 0.000 0.000
                            CHANNELS 3 Yrotation Xrotation Zrotation
                            JOINT RightElbow
                            {
OFFSET -0 -27 0.000
						CHANNELS 3 Xrotation Yrotation Zrotation
                                JOINT RightWrist
                                {
OFFSET -0 -26 0.000
						CHANNELS 3 Xrotation Yrotation Zrotation
                                    JOINT RightFinger0
                                    {
OFFSET -0.196 -2.56 3.210
						CHANNELS 3 Xrotation Yrotation Zrotation
                                        JOINT RightFinger01
                                        {
OFFSET -0 -3.788 0.000
						CHANNELS 3 Xrotation Yrotation Zrotation
                                            JOINT RightFinger0Nub
                                            {
OFFSET -0 -2.631 0.000
						CHANNELS 3 Xrotation Yrotation Zrotation
                                                End Site
                                                {
OFFSET 0 -2.256 0
                                                }
                                            }
                                        }
                                    }
                                    JOINT RightFinger1
                                    {
OFFSET -0.523 -3.316 2.035
						CHANNELS 3 Xrotation Yrotation Zrotation
                                        JOINT RightFinger11
                                        {
OFFSET 0.094 -5.366 1.028
						CHANNELS 3 Xrotation Yrotation Zrotation
                                            JOINT RightFinger12
                                            {
OFFSET -0 -3.723 0.000
						CHANNELS 3 Xrotation Yrotation Zrotation
                                                JOINT RightFinger1Nub
                                                {
OFFSET -0 -2.111 0.000
						CHANNELS 3 Xrotation Yrotation Zrotation
                                                    End Site
                                                    {
OFFSET 0 -1.857 0
                                                    }
                                                }
                                            }
                                        }
                                    }
                                    JOINT RightFinger2
                                    {
OFFSET -0.532 -3.479 0.778
						CHANNELS 3 Xrotation Yrotation Zrotation
                                        JOINT RightFinger21
                                        {
OFFSET 0.086 -5.322 0.323
						CHANNELS 3 Xrotation Yrotation Zrotation
                                            JOINT RightFinger22
                                            {
OFFSET -0 -4.062 0.000
						CHANNELS 3 Xrotation Yrotation Zrotation
                                                JOINT RightFinger2Nub
                                                {
OFFSET -0 -2.547 0.000
						CHANNELS 3 Xrotation Yrotation Zrotation
                                                    End Site
                                                    {
OFFSET 0 -2.031 0
                                                    }
                                                }
                                            }
                                        }
                                    }
                                    JOINT RightFinger3
                                    {
OFFSET -0.553 -3.461 -0.133
						CHANNELS 3 Xrotation Yrotation Zrotation
                                        JOINT RightFinger31
                                        {
OFFSET 0.023 -4.767 -0.493
						CHANNELS 3 Xrotation Yrotation Zrotation
                                            JOINT RightFinger32
                                            {
OFFSET -0 -3.541 0.000
						CHANNELS 3 Xrotation Yrotation Zrotation
                                                JOINT RightFinger3Nub
                                                {
OFFSET -0 -2.456 0.000
						CHANNELS 3 Xrotation Yrotation Zrotation
                                                    End Site
                                                    {
OFFSET 0 -1.91 0
                                                    }
                                                }
                                            }
                                        }
                                    }
                                    JOINT RightFinger4
                                    {
OFFSET -0.483 -3.251 -1.236
						CHANNELS 3 Xrotation Yrotation Zrotation
                                        JOINT RightFinger41
                                        {
OFFSET 0.023 -4.259 -1.122
						CHANNELS 3 Xrotation Yrotation Zrotation
                                            JOINT RightFinger42
                                            {
OFFSET -0 -2.835 0.000
						CHANNELS 3 Xrotation Yrotation Zrotation
                                                JOINT RightFinger4Nub
                                                {
OFFSET -0 -1.792 0.000
						CHANNELS 3 Xrotation Yrotation Zrotation
                                                    End Site
                                                    {
OFFSET 0 -1.692 0
                                                    }
                                                }
                                            }
                                        }
                                    }
                                }
                            }
                        }
                    }
                    JOINT LeftCollar
                    {
                        OFFSET 3.200 6.945 0.000
                        CHANNELS 3 Yrotation Xrotation Zrotation
                        JOINT LeftShoulder
                        {
                            OFFSET 12.800 0.000 0.000
                            CHANNELS 3 Yrotation Xrotation Zrotation
                            JOINT LeftElbow
                            {
OFFSET -0 -27 0.000
						CHANNELS 3 Xrotation Yrotation Zrotation
                                JOINT LeftWrist
                                {
OFFSET -0 -26 0.000
						CHANNELS 3 Xrotation Yrotation Zrotation
                                    JOINT LeftFinger0
                                    {
OFFSET -0.196 -2.56 3.210
						CHANNELS 3 Xrotation Yrotation Zrotation
                                        JOINT LeftFinger01
                                        {
OFFSET -0 -3.788 0.000
						CHANNELS 3 Xrotation Yrotation Zrotation
                                            JOINT LeftFinger0Nub
                                            {
OFFSET -0 -2.631 0.000
						CHANNELS 3 Xrotation Yrotation Zrotation
                                                End Site
                                                {
OFFSET 0 -2.256 0
                                                }
                                            }
                                        }
                                    }
                                    JOINT LeftFinger1
                                    {
OFFSET -0.523 -3.316 2.035
						CHANNELS 3 Xrotation Yrotation Zrotation
                                        JOINT LeftFinger11
                                        {
OFFSET 0.094 -5.366 1.028
						CHANNELS 3 Xrotation Yrotation Zrotation
                                            JOINT LeftFinger12
                                            {
OFFSET -0 -3.723 0.000
						CHANNELS 3 Xrotation Yrotation Zrotation
                                                JOINT LeftFinger1Nub
                                                {
OFFSET -0 -2.111 0.000
						CHANNELS 3 Xrotation Yrotation Zrotation
                                                    End Site
                                                    {
OFFSET 0 -1.857 0
                                                    }
                                                }
                                            }
                                        }
                                    }
                                    JOINT LeftFinger2
                                    {
OFFSET -0.532 -3.479 0.778
						CHANNELS 3 Xrotation Yrotation Zrotation
                                        JOINT LeftFinger21
                                        {
OFFSET 0.086 -5.322 0.323
						CHANNELS 3 Xrotation Yrotation Zrotation
                                            JOINT LeftFinger22
                                            {
OFFSET -0 -4.062 0.000
						CHANNELS 3 Xrotation Yrotation Zrotation
                                                JOINT LeftFinger2Nub
                                                {
OFFSET -0 -2.547 0.000
						CHANNELS 3 Xrotation Yrotation Zrotation
                                                    End Site
                                                    {
OFFSET 0 -2.031 0
                                                    }
                                                }
                                            }
                                        }
                                    }
                                    JOINT LeftFinger3
                                    {
OFFSET -0.553 -3.461 -0.133
						CHANNELS 3 Xrotation Yrotation Zrotation
                                        JOINT LeftFinger31
                                        {
OFFSET 0.023 -4.767 -0.493
						CHANNELS 3 Xrotation Yrotation Zrotation
                                            JOINT LeftFinger32
                                            {
OFFSET -0 -3.541 0.000
						CHANNELS 3 Xrotation Yrotation Zrotation
                                                JOINT LeftFinger3Nub
                                                {
OFFSET -0 -2.456 0.000
						CHANNELS 3 Xrotation Yrotation Zrotation
                                                    End Site
                                                    {
OFFSET 0 -1.91 0
                                                    }
                                                }
                                            }
                                        }
                                    }
                                    JOINT LeftFinger4
                                    {
OFFSET -0.483 -3.251 -1.236
						CHANNELS 3 Xrotation Yrotation Zrotation
                                        JOINT LeftFinger41
                                        {
OFFSET 0.023 -4.259 -1.122
						CHANNELS 3 Xrotation Yrotation Zrotation
                                            JOINT LeftFinger42
                                            {
OFFSET -0 -2.835 0.000
						CHANNELS 3 Xrotation Yrotation Zrotation
                                                JOINT LeftFinger4Nub
                                                {
OFFSET -0 -1.792 0.000
						CHANNELS 3 Xrotation Yrotation Zrotation
                                                    End Site
                                                    {
OFFSET 0 -1.692 0
                                                    }
                                                }
                                            }
                                        }
                                    }
                                }
                            }
                        }
                    }
                }
            }
        }
    }
}
MOTION

Frames: 11
Frame Time: 0.017
-186.06 91.16 94.70 122.92 6.32 -4.35 -23.50 -4.65 -1.01 0.00 25.12 0.00 -49.66 -9.99 20.95 -41.92 -22.13 21.01 0.00 26.41 0.00 -5.71 -6.76 -11.58 -17.88 -6.69 -3.27 -4.50 -1.37 -1.04 -7.23 -2.22 -1.61 -0.30 3.14 0.15 1.12 58.11 3.24 -1.37 33.08 2.94 -6.52 -11.28 -0.03 -43.51 22.14 -44.15 -8.07 16.98 20.66 -5.03 -12.47 24.66 -47.7 -0 18.81 15.15 -0 -11.01 8.77 -0 0.00 0 -0 0.00 -15 -0 46.87 0 -0 30.38 0 -0 15.19 0 -0 0.00 0 -0 33.03 0 -0 33.03 0 -0 33.03 0 -0 0.00 15 -0 48.99 0 -0 48.99 0 -0 48.99 0 -0 0.00 25 -0 38.40 0 -0 38.40 0 -0 38.40 -28.41 3.73 -0.66 22.57 -10.13 11.38 28.52 37.17 -74.40 -9.83 37.14 20.05 -25.28 0 -27.03 -40.50 0 17.19 29.04 0 0.00 0.00 0 0.00 -15.00 0 -17.05 0.00 0 -17.06 0.00 0 -8.53 0.00 0 0.00 0.00 0 -27.71 0.00 0 -27.71 0.00 0 -27.71 0.00 0 0.00 15.00 0 -32.61 0.00 0 -32.61 0.00 0 -32.61 0.00 0 0.00 25.00 0 -32.65 0.00 0 -32.65 0.00 0 -32.65 
-186.08 91.15 94.68 122.72 6.23 -4.25 -23.33 -4.62 -1.15 -0.00 25.14 0.00 -49.62 -10.02 20.97 -41.75 -22.11 20.85 -0.00 26.39 0.00 -5.64 -6.77 -11.57 -18.46 -6.64 -3.30 -4.65 -1.36 -1.06 -7.45 -2.21 -1.62 -0.24 3.11 0.12 0.88 57.67 2.56 -0.92 33.46 2.42 -5.56 -10.83 0.49 -43.18 21.00 -43.14 -8.98 20.14 19.48 -4.4 -14.95 24.87 -46.48 -0 17.69 17.58 -0 -12.13 6.15 -0 0.00 0 -0 0.00 -15 -0 44.21 0 -0 20.01 0 -0 10.00 0 -0 0.00 0 -0 25.74 0 -0 25.74 0 -0 25.74 0 -0 0.00 15 -0 49.14 0 -0 49.14 0 -0 49.14 0 -0 0.00 25 -0 32.01 0 -0 32.01 0 -0 32.01 -27.59 3.81 -0.36 22.67 -10.01 10.89 28.65 37.59 -74.49 -9.82 36.86 20.03 -25.28 0 -26.91 -40.50 0 17.30 29.07 0 0.00 0.00 0 0.00 -15.00 0 -17.01 0.00 0 -17.11 0.00 0 -8.56 0.00 0 0.00 0.00 0 -27.65 0.00 0 -27.65 0.00 0 -27.65 0.00 0 0.00 15.00 0 -32.61 0.00 0 -32.61 0.00 0 -32.61 0.00 0 0.00 25.00 0 -32.65 0.00 0 -32.65 0.00 0 -32.65 
-186.11 91.15 94.67 122.38 6.19 -4.18 -23.15 -4.68 -1.26 0.00 25.20 0.00 -49.44 -10.06 20.95 -41.43 -22.11 20.72 -0.00 26.37 -0.00 -5.57 -6.79 -11.55 -19.13 -6.60 -3.18 -4.82 -1.35 -1.04 -7.71 -2.19 -1.58 -0.16 3.08 0.08 0.59 57.07 1.73 -0.53 33.90 1.68 -4.17 -10.40 0.93 -42.26 19.81 -41.54 -9.63 23.74 17.82 -5.54 -3.68 13.37 -47.79 -0 18.92 14.97 -0 -10.90 3.7 -0 0.00 0 -0 0.00 -15 -0 28.91 0 -0 35.27 0 -0 17.63 0 -0 0.00 0 -0 23.64 0 -0 23.64 0 -0 23.64 0 -0 0.00 15 -0 27.40 0 -0 27.40 0 -0 27.40 0 -0 0.00 25 -0 42.43 0 -0 42.43 0 -0 42.43 -26.48 3.61 -0.21 22.60 -9.76 10.52 28.82 37.99 -74.61 -9.90 36.62 19.97 -25.24 0 -26.83 -40.43 0 17.39 29.13 0 0.00 0.00 0 0.00 -15.00 0 -16.99 0.00 0 -17.14 0.00 0 -8.57 0.00 0 0.00 0.00 0 -27.63 0.00 0 -27.63 0.00 0 -27.63 0.00 0 0.00 15.00 0 -32.60 0.00 0 -32.60 0.00 0 -32.60 0.00 0 0.00 25.00 0 -32.67 0.00 0 -32.67 0.00 0 -32.67 
-186.17 91.15 94.67 121.93 6.17 -4.17 -22.98 -4.75 -1.30 -0.00 25.24 -0.00 -49.18 -10.09 20.90 -41.06 -22.14 20.68 -0.00 26.38 -0.00 -5.46 -6.82 -11.53 -19.77 -6.56 -2.95 -4.99 -1.34 -0.99 -7.97 -2.16 -1.49 -0.08 3.05 0.04 0.29 56.41 0.87 -0.23 34.32 0.87 -2.69 -10.08 1.32 -40.89 18.78 -39.7 -9.79 26.61 15.67 -5.44 -0.76 9.76 -48.77 -0 19.37 13.01 -0 -10.45 2.73 -0 0.00 0 -0 0.00 -15 -0 24.50 0 -0 29.46 0 -0 14.73 0 -0 0.00 0 -0 17.60 0 -0 17.60 0 -0 17.60 0 -0 0.00 15 -0 23.00 0 -0 23.00 0 -0 23.00 0 -0 0.00 25 -0 46.33 0 -0 46.33 0 -0 46.33 -25.31 3.26 -0.12 22.47 -9.48 10.2 28.97 38.3 -74.72 -10.06 36.47 19.88 -25.15 0 -26.80 -40.24 0 17.42 29.22 0 0.00 0.00 0 0.00 -15.00 0 -16.97 0.00 0 -17.17 0.00 0 -8.58 0.00 0 0.00 0.00 0 -27.66 0.00 0 -27.66 0.00 0 -27.66 0.00 0 0.00 15.00 0 -32.58 0.00 0 -32.58 0.00 0 -32.58 0.00 0 0.00 25.00 0 -32.69 0.00 0 -32.69 0.00 0 -32.69 
-186.23 91.14 94.67 121.38 6.17 -4.18 -22.74 -4.91 -1.35 0.00 25.40 0.00 -48.85 -10.10 20.84 -40.70 -22.17 20.66 -0.00 26.49 -0.00 -5.27 -6.91 -11.51 -20.22 -6.32 -2.67 -5.11 -1.28 -0.91 -8.15 -2.07 -1.38 -0.01 3.02 0.01 0.05 55.61 0.14 -0.06 34.58 0.13 -2.24 -10.44 1.40 -38.52 18.30 -37.63 -9.03 28.24 13.48 -4.93 -3.45 10.33 -49.23 -0 19.67 12.08 -0 -10.15 2.6 -0 0.00 0 -0 0.00 -15 -0 17.68 0 -0 24.77 0 -0 12.39 0 -0 0.00 0 -0 12.47 0 -0 12.47 0 -0 12.47 0 -0 0.00 15 -0 17.53 0 -0 17.53 0 -0 17.53 0 -0 0.00 25 -0 39.38 0 -0 39.38 0 -0 39.38 -24.45 2.63 -0.00 22.36 -9.21 9.95 29.04 38.56 -74.75 -10.42 36.78 19.81 -24.93 0 -26.97 -39.81 0 17.24 29.34 0 0.00 0.00 0 0.00 -15.00 0 -17.03 0.00 0 -17.21 0.00 0 -8.61 0.00 0 0.00 0.00 0 -27.89 0.00 0 -27.89 0.00 0 -27.89 0.00 0 0.00 15.00 0 -32.60 0.00 0 -32.60 0.00 0 -32.60 0.00 0 0.00 25.00 0 -32.73 0.00 0 -32.73 0.00 0 -32.73 
-186.33 91.13 94.68 120.83 6.19 -4.19 -22.48 -5.04 -1.42 -0.00 25.41 -0.00 -48.54 -10.15 20.77 -40.47 -22.23 20.69 -0.00 26.63 -0.00 -4.98 -6.99 -11.53 -20.37 -6.01 -2.41 -5.15 -1.22 -0.84 -8.21 -1.97 -1.26 0.02 3.01 -0.02 -0.11 54.92 -0.30 -0.07 34.63 -0.38 -2.87 -11.22 1.43 -35.45 18.08 -35.48 -7.76 29.79 11.35 -4.56 -6.02 10.63 -48.79 -0 19.57 12.96 -0 -10.25 2.21 -0 0.00 0 -0 0.00 -15 -0 12.97 0 -0 20.45 0 -0 10.23 0 -0 0.00 0 -0 9.61 0 -0 9.61 0 -0 9.61 0 -0 0.00 15 -0 13.44 0 -0 13.44 0 -0 13.44 0 -0 0.00 25 -0 32.21 0 -0 32.21 0 -0 32.21 -24.22 2.00 0.05 22.29 -9.07 9.84 29.11 38.77 -74.77 -10.80 37.17 19.73 -24.68 0 -27.18 -39.30 0 17.03 29.46 0 0.00 0.00 0 0.00 -15.00 0 -17.14 0.00 0 -17.22 0.00 0 -8.61 0.00 0 0.00 0.00 0 -28.10 0.00 0 -28.10 0.00 0 -28.10 0.00 0 0.00 15.00 0 -32.61 0.00 0 -32.61 0.00 0 -32.61 0.00 0 0.00 25.00 0 -32.73 0.00 0 -32.73 0.00 0 -32.73 
-186.38 91.13 94.69 120.25 6.20 -4.21 -22.18 -5.16 -1.47 0.00 25.40 0.00 -48.26 -10.19 20.67 -40.61 -22.10 20.78 0.00 26.76 0.00 -4.25 -7.10 -11.63 -20.38 -5.86 -2.17 -5.15 -1.19 -0.77 -8.22 -1.91 -1.16 0.05 3.00 -0.04 -0.23 54.46 -0.64 -0.17 34.70 -0.83 -3.36 -11.46 1.67 -34.43 17.80 -35.65 -8.91 32.15 11.59 -3.95 -2.95 8.08 -49.59 -0 19.24 11.36 -0 -10.58 3.5 -0 0.00 0 -0 0.00 -15 -0 12.18 0 -0 17.90 0 -0 8.95 0 -0 0.00 0 -0 8.41 0 -0 8.41 0 -0 8.41 0 -0 0.00 15 -0 12.99 0 -0 12.99 0 -0 12.99 0 -0 0.00 25 -0 24.24 0 -0 24.24 0 -0 24.24 -24.13 1.68 -0.18 22.00 -9.08 9.92 29.16 39.01 -74.82 -10.05 37.29 20.23 -24.92 0 -27.42 -39.78 0 16.80 28.96 0 0.00 0.00 0 0.00 -15.00 0 -17.57 0.00 0 -17.20 0.00 0 -8.60 0.00 0 0.00 0.00 0 -28.14 0.00 0 -28.14 0.00 0 -28.14 0.00 0 0.00 15.00 0 -32.77 0.00 0 -32.77 0.00 0 -32.77 0.00 0 0.00 25.00 0 -32.83 0.00 0 -32.83 0.00 0 -32.83 
-186.40 91.13 94.70 119.66 6.19 -4.27 -21.80 -5.23 -1.50 0.00 25.35 0.00 -48.04 -10.20 20.59 -40.47 -22.01 20.83 0.00 26.91 0.00 -3.77 -7.23 -11.68 -20.39 -5.85 -1.87 -5.15 -1.18 -0.70 -8.23 -1.88 -1.04 0.08 3.00 -0.06 -0.36 54.15 -0.99 -0.36 34.83 -1.35 -3.73 -11.51 1.76 -33.50 17.56 -35.8 -10.63 34.53 12.53 -2.59 -1.54 6.13 -50.23 -0 18.91 10.08 -0 -10.91 4.07 -0 0.00 0 -0 0.00 -15 -0 11.69 0 -0 16.07 0 -0 8.03 0 -0 0.00 0 -0 8.00 0 -0 8.00 0 -0 8.00 0 -0 0.00 15 -0 13.45 0 -0 13.45 0 -0 13.45 0 -0 0.00 25 -0 24.43 0 -0 24.43 0 -0 24.43 -23.73 1.48 -0.52 21.36 -9.06 10.05 29.18 39.22 -74.83 -9.96 37.19 20.25 -24.88 0 -27.38 -39.72 0 16.84 28.47 0 0.00 0.00 0 0.00 -15.00 0 -17.69 0.00 0 -17.18 0.00 0 -8.59 0.00 0 0.00 0.00 0 -28.04 0.00 0 -28.04 0.00 0 -28.04 0.00 0 0.00 15.00 0 -32.73 0.00 0 -32.73 0.00 0 -32.73 0.00 0 0.00 25.00 0 -32.76 0.00 0 -32.76 0.00 0 -32.76 
-186.40 91.13 94.73 119.07 6.14 -4.34 -21.38 -5.27 -1.52 0.00 25.28 0.00 -47.84 -10.18 20.51 -40.32 -21.88 20.88 -0.00 27.08 -0.00 -3.33 -7.37 -11.74 -20.45 -5.89 -1.57 -5.17 -1.19 -0.63 -8.26 -1.87 -0.92 0.12 2.99 -0.09 -0.51 53.90 -1.40 -0.52 35.02 -1.91 -3.81 -11.40 1.69 -30.82 16.92 -33.67 -10.31 35.93 12.07 -3.6 4.76 4.37 -50.21 -0 16.73 10.11 -0 -13.09 5.13 -0 0.00 0 -0 0.00 -15 -0 12.07 0 -0 14.95 0 -0 7.47 0 -0 0.00 0 -0 6.79 0 -0 6.79 0 -0 6.79 0 -0 0.00 15 -0 14.71 0 -0 14.71 0 -0 14.71 0 -0 0.00 25 -0 27.14 0 -0 27.14 0 -0 27.14 -22.91 1.30 -0.85 21.18 -9.06 10.04 28.86 38.7 -74.31 -9.88 37.05 20.31 -24.87 0 -27.31 -39.69 0 16.91 28.62 0 0.00 0.00 0 0.00 -15.00 0 -17.10 0.00 0 -17.28 0.00 0 -8.64 0.00 0 0.00 0.00 0 -27.90 0.00 0 -27.90 0.00 0 -27.90 0.00 0 0.00 15.00 0 -32.69 0.00 0 -32.69 0.00 0 -32.69 0.00 0 0.00 25.00 0 -32.67 0.00 0 -32.67 0.00 0 -32.67 
-186.39 91.14 94.77 118.48 6.10 -4.41 -20.95 -5.32 -1.55 -0.00 25.23 0.00 -47.65 -10.13 20.45 -40.09 -21.74 20.93 -0.00 27.18 0.00 -2.99 -7.52 -11.79 -20.60 -5.88 -1.35 -5.21 -1.18 -0.57 -8.32 -1.85 -0.83 0.16 2.97 -0.12 -0.67 53.55 -1.87 -0.46 35.25 -2.44 -3.64 -11.29 1.66 -28.05 16.50 -31.4 -10.35 36.84 12.16 -4.3 4.75 4.65 -49.48 -0 15.45 11.57 -0 -14.37 6.15 -0 0.00 0 -0 0.00 -15 -0 11.67 0 -0 14.42 0 -0 7.21 0 -0 0.00 0 -0 6.21 0 -0 6.21 0 -0 6.21 0 -0 0.00 15 -0 14.93 0 -0 14.93 0 -0 14.93 0 -0 0.00 25 -0 26.98 0 -0 26.98 0 -0 26.98 -21.66 0.96 -0.96 20.71 -8.88 10.04 28.50 38.13 -73.74 -9.82 36.87 20.33 -24.86 0 -27.20 -39.67 0 17.01 28.70 0 0.00 0.00 0 0.00 -15.00 0 -16.97 0.00 0 -17.31 0.00 0 -8.66 0.00 0 0.00 0.00 0 -27.73 0.00 0 -27.73 0.00 0 -27.73 0.00 0 0.00 15.00 0 -32.65 0.00 0 -32.65 0.00 0 -32.65 0.00 0 0.00 25.00 0 -32.57 0.00 0 -32.57 0.00 0 -32.57 
-186.42 91.16 94.82 117.88 6.05 -4.47 -20.47 -5.38 -1.60 0.00 25.21 -0.00 -47.53 -10.09 20.42 -39.65 -21.67 20.93 0.00 27.22 0.00 -2.82 -7.58 -11.83 -20.88 -5.71 -1.18 -5.28 -1.15 -0.53 -8.43 -1.79 -0.76 0.21 2.95 -0.15 -0.84 52.98 -2.43 -0.17 35.48 -2.98 -3.22 -11.31 1.76 -18.44 17.21 -23.93 -5.88 31.66 7.59 -5.33 4.2 5.11 -48.02 -0 14.58 14.5 -0 -15.24 5.98 -0 0.00 0 -0 0.00 -15 -0 11.66 0 -0 14.32 0 -0 7.16 0 -0 0.00 0 -0 5.95 0 -0 5.95 0 -0 5.95 0 -0 0.00 15 -0 15.60 0 -0 15.60 0 -0 15.60 0 -0 0.00 25 -0 27.29 0 -0 27.29 0 -0 27.29 -20.24 0.38 -0.97 19.47 -8.55 10.21 28.45 38.26 -73.60 -9.72 36.69 20.30 -24.87 0 -27.10 -39.70 0 17.11 29.61 0 0.00 0.00 0 0.00 -15.00 0 -16.87 0.00 0 -16.91 0.00 0 -8.46 0.00 0 0.00 0.00 0 -27.57 0.00 0 -27.57 0.00 0 -27.57 0.00 0 0.00 15.00 0 -32.62 0.00 0 -32.62 0.00 0 -32.62 0.00 0 0.00 25.00 0 -32.49 0.00 0 -32.49 0.00 0 -32.49 
